HIERARCHY
ROOT joint_Root
{
	OFFSET 0.0 0.0 0.0
	CHANNELS 6 Xposition Yposition Zposition Zrotation Xrotation Yrotation 
	JOINT Hips
	{
		OFFSET 4.5925 91.4895 -427.239
		CHANNELS 6 Xposition Yposition Zposition Zrotation Xrotation Yrotation 
		JOINT Spine
		{
			OFFSET 15.7357 0.0 0.0
			CHANNELS 6 Xposition Yposition Zposition Zrotation Xrotation Yrotation 
			JOINT Chest
			{
				OFFSET 8.98455 -0.406207 0.0
				CHANNELS 6 Xposition Yposition Zposition Zrotation Xrotation Yrotation 
				JOINT Neck
				{
					OFFSET 16.3773 0.0 0.0
					CHANNELS 6 Xposition Yposition Zposition Zrotation Xrotation Yrotation 
					JOINT Head
					{
						OFFSET 6.45672 0.0 0.0
						CHANNELS 6 Xposition Yposition Zposition Zrotation Xrotation Yrotation 
						End Site
						{
							OFFSET 0.0 0.0 0.0
						}
					}
				}
				JOINT Shoulder_L
				{
					OFFSET 12.9942 -0.242716 4.98039
					CHANNELS 6 Xposition Yposition Zposition Zrotation Xrotation Yrotation 
					JOINT UpperArm_L
					{
						OFFSET 5.34809 0.0 0.0
						CHANNELS 6 Xposition Yposition Zposition Zrotation Xrotation Yrotation 
						JOINT LowerArm_L
						{
							OFFSET 24.3286 1.87007e-05 0.0
							CHANNELS 6 Xposition Yposition Zposition Zrotation Xrotation Yrotation 
							JOINT Hand_L
							{
								OFFSET 22.2916 0.0 0.0
								CHANNELS 6 Xposition Yposition Zposition Zrotation Xrotation Yrotation 
								End Site
								{
									OFFSET 0.0 0.0 0.0
								}
							}
						}
					}
				}
				JOINT Shoulder_R
				{
					OFFSET 12.9945 -0.242716 -4.98039
					CHANNELS 6 Xposition Yposition Zposition Zrotation Xrotation Yrotation 
					JOINT UpperArm_R
					{
						OFFSET -5.34813 0.0 0.0
						CHANNELS 6 Xposition Yposition Zposition Zrotation Xrotation Yrotation 
						JOINT LowerArm_R
						{
							OFFSET -24.3289 0.000322201 0.0
							CHANNELS 6 Xposition Yposition Zposition Zrotation Xrotation Yrotation 
							JOINT Hand_R
							{
								OFFSET -22.2915 -0.000108084 0.0
								CHANNELS 6 Xposition Yposition Zposition Zrotation Xrotation Yrotation 
								End Site
								{
									OFFSET 0.0 0.0 0.0
								}
							}
						}
					}
				}
			}
		}
		JOINT UpperLeg_L
		{
			OFFSET -2.19248 -6.46944 0.0
			CHANNELS 6 Xposition Yposition Zposition Zrotation Xrotation Yrotation 
			JOINT LowerLeg_L
			{
				OFFSET 39.0811 0.0 -1.23785e-05
				CHANNELS 6 Xposition Yposition Zposition Zrotation Xrotation Yrotation 
				JOINT Foot_L
				{
					OFFSET 40.9854 0.0 -1.26872e-05
					CHANNELS 6 Xposition Yposition Zposition Zrotation Xrotation Yrotation 
					JOINT Toes_L
					{
						OFFSET 11.7543 0.0 0.0
						CHANNELS 6 Xposition Yposition Zposition Zrotation Xrotation Yrotation 
						End Site
						{
							OFFSET 0.0 0.0 0.0
						}
					}
				}
			}
		}
		JOINT UpperLeg_R
		{
			OFFSET -2.19251 6.46944 0.0
			CHANNELS 6 Xposition Yposition Zposition Zrotation Xrotation Yrotation 
			JOINT LowerLeg_R
			{
				OFFSET -39.0811 -0.00228153 -0.0401928
				CHANNELS 6 Xposition Yposition Zposition Zrotation Xrotation Yrotation 
				JOINT Foot_R
				{
					OFFSET -40.9854 0.0 0.0
					CHANNELS 6 Xposition Yposition Zposition Zrotation Xrotation Yrotation 
					JOINT Toes_R
					{
						OFFSET -11.7543 0.0 0.0
						CHANNELS 6 Xposition Yposition Zposition Zrotation Xrotation Yrotation 
						End Site
						{
							OFFSET 0.0 0.0 0.0
						}
					}
				}
			}
		}
	}
}
MOTION
Frames:	6
Frame Time:	0.0333333
0.000000 0.000000 0.000000 0.000000 0.000000 -0.000000 -62.148100 91.447000 193.190000 107.814000 86.542500 -17.555700 15.735700 0.000005 -0.000001 99.722800 83.845100 -98.172300 8.984550 -0.406207 -0.000000 4.343530 2.029190 3.020730 16.377300 -0.000001 -0.000001 0.673701 -0.886601 4.128720 6.456720 -0.000001 -0.000000 -5.909610 -1.682480 12.741900 12.994200 -0.242716 4.980390 -91.191300 3.848570 -72.785800 5.348090 -0.000007 -0.000001 -72.590400 31.445200 -2.780130 24.328600 0.000019 0.000005 11.867200 23.721500 -27.580500 22.291600 -0.000001 0.000005 8.642250 5.282660 0.553118 12.994500 -0.242716 -4.980390 88.187400 10.347500 -80.007700 -5.348130 -0.000001 -0.000004 -54.274200 24.878000 -19.930500 -24.328900 0.000322 -0.000009 2.386550 5.758960 -22.565900 -22.291500 -0.000108 -0.000004 17.186000 5.382580 -2.379220 -2.192480 -6.469440 -0.000000 -177.073000 -7.468130 -18.376300 39.081100 -0.000007 -0.000012 0.051846 -0.031928 58.371000 40.985400 -0.000006 -0.000013 2.001640 -6.404000 -63.532600 11.754300 -0.000000 0.000003 -0.001223 -0.018528 -17.330200 -2.192510 6.469440 -0.000001 175.260000 26.802100 178.115000 -39.081100 -0.002282 -0.040193 0.020865 -0.031018 29.517400 -40.985400 0.000008 0.000006 5.956900 9.250240 -69.656600 -11.754300 -0.000006 -0.000006 -0.009698 -0.101368 -20.702800
0.000000 0.000000 0.000000 0.000000 0.000000 -0.000000 -60.175800 91.713600 193.300000 112.232000 86.329100 -22.380700 15.735700 0.000005 -0.000001 101.991000 83.821900 -100.666000 8.984550 -0.406207 -0.000000 4.296260 2.522850 2.553390 16.377300 -0.000001 -0.000001 0.360106 -0.951083 3.903360 6.456720 -0.000001 -0.000000 -6.149480 -2.101520 12.213500 12.994200 -0.242716 4.980390 -91.202500 3.816140 -72.495600 5.348090 -0.000007 -0.000001 -73.492500 29.805500 -0.296541 24.328600 0.000019 0.000005 11.372100 25.123900 -25.347800 22.291600 -0.000001 0.000005 8.341690 5.259380 1.183480 12.994500 -0.242716 -4.980390 88.317100 9.895120 -80.298000 -5.348130 -0.000001 -0.000004 -51.955700 23.271800 -24.104700 -24.328900 0.000322 -0.000009 2.155580 4.445740 -25.914800 -22.291500 -0.000108 -0.000004 17.401300 5.394860 -2.771140 -2.192480 -6.469440 -0.000000 -178.407000 -7.481460 -20.894000 39.081100 -0.000007 -0.000012 0.035023 -0.026480 52.904400 40.985400 -0.000006 -0.000013 1.279320 -4.969420 -63.598300 11.754300 -0.000000 0.000003 -0.001276 -0.019255 -17.359800 -2.192510 6.469440 -0.000001 174.095000 27.730900 179.966000 -39.081100 -0.002282 -0.040193 0.018909 -0.029417 27.941500 -40.985400 0.000008 0.000006 5.830220 10.730900 -68.648500 -11.754300 -0.000006 -0.000006 -0.014062 -0.131825 -21.950200
0.000000 0.000000 0.000000 0.000000 0.000000 -0.000000 -58.163900 91.810500 193.397000 112.273000 85.913400 -22.852600 15.735700 0.000005 -0.000001 104.703000 83.772300 -103.591000 8.984550 -0.406207 -0.000000 4.257390 3.122180 2.105690 16.377300 -0.000001 -0.000001 -0.088518 -1.057520 3.726220 6.456720 -0.000001 -0.000000 -6.408610 -2.509480 11.792500 12.994200 -0.242716 4.980390 -91.247400 3.909350 -72.288100 5.348090 -0.000007 -0.000001 -74.062200 27.052400 1.685120 24.328600 0.000019 0.000005 10.550400 26.580600 -22.599300 22.291600 -0.000001 0.000005 8.878750 5.241530 1.654880 12.994500 -0.242716 -4.980390 88.440700 9.557720 -80.689800 -5.348130 -0.000001 -0.000004 -50.013900 21.277000 -27.429400 -24.328900 0.000322 -0.000009 1.580610 2.821290 -29.296900 -22.291500 -0.000108 -0.000004 17.882600 5.409650 -3.253230 -2.192480 -6.469440 -0.000000 -179.427000 -8.043000 -22.394800 39.081100 -0.000007 -0.000012 0.022844 -0.022896 44.930500 40.985400 -0.000006 -0.000013 0.484115 -3.206550 -63.265000 11.754300 -0.000000 0.000003 -0.001162 -0.017683 -17.295900 -2.192510 6.469440 -0.000001 173.190000 27.922700 -178.397000 -39.081100 -0.002282 -0.040193 0.016860 -0.026951 26.693800 -40.985400 0.000008 0.000006 5.401980 11.815600 -67.959700 -11.754300 -0.000006 -0.000006 -0.018558 -0.159168 -23.073500
0.000000 0.000000 0.000000 0.000000 0.000000 -0.000000 -56.068500 91.665600 193.510000 110.747000 85.709800 -21.803100 15.735700 0.000005 -0.000001 106.568000 83.747800 -105.647000 8.984550 -0.406207 -0.000000 4.198040 3.531350 1.710810 16.377300 -0.000001 -0.000001 -0.650827 -1.156100 3.545190 6.456720 -0.000001 -0.000000 -6.704320 -2.971870 11.499400 12.994200 -0.242716 4.980390 -91.264300 3.926880 -72.137900 5.348090 -0.000007 -0.000001 -74.282500 23.762400 3.138700 24.328600 0.000019 0.000005 9.646180 28.028800 -19.885000 22.291600 -0.000001 0.000005 9.287110 5.202930 2.645160 12.994500 -0.242716 -4.980390 88.549000 9.303220 -81.095000 -5.348130 -0.000001 -0.000004 -48.645800 19.123000 -30.028200 -24.328900 0.000322 -0.000009 1.260830 1.991580 -32.371500 -22.291500 -0.000108 -0.000004 18.582700 5.422280 -3.675470 -2.192480 -6.469440 -0.000000 179.802000 -8.530680 -23.171500 39.081100 -0.000007 -0.000012 0.012961 -0.018454 35.080100 40.985400 -0.000006 -0.000013 0.059360 -1.342340 -61.669000 11.754300 -0.000000 0.000003 -0.001226 -0.018565 -17.331700 -2.192510 6.469440 -0.000001 172.458000 28.253000 -176.979000 -39.081100 -0.002282 -0.040193 0.014629 -0.023165 26.041700 -40.985400 0.000008 0.000006 5.179850 12.712000 -67.783600 -11.754300 -0.000006 -0.000006 -0.023761 -0.187294 -24.233100
0.000000 0.000000 0.000000 0.000000 0.000000 -0.000000 -53.812300 91.267700 193.611000 108.482000 85.730900 -20.005800 15.735700 0.000005 -0.000001 107.781000 83.753400 -107.029000 8.984550 -0.406207 -0.000000 4.113300 3.785330 1.366660 16.377300 -0.000001 -0.000001 -1.170990 -1.353360 3.366120 6.456720 -0.000001 -0.000000 -7.229770 -3.445450 11.233300 12.994200 -0.242716 4.980390 -91.264500 3.928140 -72.140300 5.348090 -0.000007 -0.000001 -74.237300 20.742900 4.173880 24.328600 0.000019 0.000005 8.587540 29.239600 -17.179500 22.291600 -0.000001 0.000005 10.218400 5.159970 3.702380 12.994500 -0.242716 -4.980390 88.629800 9.116080 -81.414800 -5.348130 -0.000001 -0.000004 -47.830900 17.065700 -31.784700 -24.328900 0.000322 -0.000009 1.334520 1.894760 -35.188500 -22.291500 -0.000108 -0.000004 19.245600 5.430390 -3.951820 -2.192480 -6.469440 -0.000000 179.269000 -8.164020 -23.540900 39.081100 -0.000007 -0.000012 0.004752 -0.010345 24.669600 40.985400 -0.000006 -0.000013 0.610879 0.911565 -59.140100 11.754300 -0.000000 0.000003 -0.001060 -0.016264 -17.238200 -2.192510 6.469440 -0.000001 171.692000 28.712300 -175.660000 -39.081100 -0.002282 -0.040193 0.009711 -0.013065 26.100800 -40.985400 0.000008 0.000006 4.915340 13.721100 -68.129900 -11.754300 -0.000006 -0.000006 -0.029235 -0.213935 -25.335600
0.000000 0.000000 0.000000 0.000000 0.000000 -0.000000 -51.193100 90.645900 193.710000 104.675000 85.617200 -16.393600 15.735700 0.000005 -0.000001 108.850000 83.693700 -108.310000 8.984550 -0.406207 -0.000000 4.159830 4.051660 0.931608 16.377300 -0.000001 -0.000001 -1.768490 -1.486220 3.233970 6.456720 -0.000001 -0.000000 -7.707260 -3.824360 11.108300 12.994200 -0.242716 4.980390 -91.196200 3.736670 -72.234300 5.348090 -0.000007 -0.000001 -74.077000 18.271800 4.887250 24.328600 0.000019 0.000005 7.673900 30.147200 -15.018200 22.291600 -0.000001 0.000005 10.613000 5.112410 4.827330 12.994500 -0.242716 -4.980390 88.684000 9.054390 -81.694800 -5.348130 -0.000001 -0.000004 -47.406500 15.568900 -32.784800 -24.328900 0.000322 -0.000009 1.593540 2.070350 -37.617700 -22.291500 -0.000108 -0.000004 20.186700 5.429510 -3.921680 -2.192480 -6.469440 -0.000000 178.880000 -7.991390 -26.381500 39.081100 -0.000007 -0.000012 0.044045 -0.118505 20.388700 40.985400 -0.000006 -0.000013 0.087952 3.590660 -56.502500 11.754300 -0.000000 0.000003 -0.001192 -0.018107 -17.313100 -2.192510 6.469440 -0.000001 170.646000 28.965400 -173.979000 -39.081100 -0.002282 -0.040193 0.001355 0.003897 26.633700 -40.985400 0.000008 0.000006 4.644770 14.714500 -68.741400 -11.754300 -0.000006 -0.000006 -0.036282 -0.244937 -26.624600
